<mxfile host="app.diagrams.net" modified="2024-02-06T15:54:13.542Z" agent="Mozilla/5.0 (Macintosh; Intel Mac OS X 10_15_7) AppleWebKit/537.36 (KHTML, like Gecko) Chrome/121.0.0.0 Safari/537.36" etag="fzlBtHd2ulos98bkh2Vr" version="23.1.1" type="github">
  <diagram name="Page-1" id="y4iEyXvNDG3aMMbnFiI6">
    <mxGraphModel dx="890" dy="461" grid="1" gridSize="10" guides="1" tooltips="1" connect="1" arrows="1" fold="1" page="1" pageScale="1" pageWidth="827" pageHeight="1169" math="0" shadow="0">
      <root>
        <mxCell id="0" />
        <mxCell id="1" parent="0" />
        <mxCell id="pmy71wfnWL_n5QM1MCdv-11" style="edgeStyle=orthogonalEdgeStyle;rounded=0;orthogonalLoop=1;jettySize=auto;html=1;entryX=0.5;entryY=0;entryDx=0;entryDy=0;fillColor=#6a00ff;strokeColor=#3700CC;strokeWidth=2;" parent="1" source="pmy71wfnWL_n5QM1MCdv-1" target="pmy71wfnWL_n5QM1MCdv-2" edge="1">
          <mxGeometry relative="1" as="geometry" />
        </mxCell>
        <mxCell id="pmy71wfnWL_n5QM1MCdv-1" value="&lt;b&gt;Prepare Evaluation Dataset&lt;/b&gt;" style="sketch=0;outlineConnect=0;fontColor=#232F3E;gradientColor=none;strokeColor=#232F3E;fillColor=#ffffff;dashed=0;verticalLabelPosition=bottom;verticalAlign=top;align=center;html=1;fontSize=12;fontStyle=0;aspect=fixed;shape=mxgraph.aws4.resourceIcon;resIcon=mxgraph.aws4.checklist_performance;" parent="1" vertex="1">
          <mxGeometry x="384" y="190" width="60" height="60" as="geometry" />
        </mxCell>
        <mxCell id="pmy71wfnWL_n5QM1MCdv-2" value="" style="shape=image;html=1;verticalAlign=top;verticalLabelPosition=bottom;labelBackgroundColor=#ffffff;imageAspect=0;aspect=fixed;image=https://cdn4.iconfinder.com/data/icons/scripting-and-programming-languages/512/Python_logo-128.png;imageBackground=none;" parent="1" vertex="1">
          <mxGeometry x="602" y="338" width="90" height="90" as="geometry" />
        </mxCell>
        <mxCell id="pmy71wfnWL_n5QM1MCdv-3" value="&lt;b&gt;Write test cases in Python&lt;/b&gt;" style="text;html=1;strokeColor=none;fillColor=none;align=center;verticalAlign=middle;whiteSpace=wrap;rounded=0;" parent="1" vertex="1">
          <mxGeometry x="592" y="428" width="130" height="30" as="geometry" />
        </mxCell>
        <mxCell id="pmy71wfnWL_n5QM1MCdv-13" style="edgeStyle=orthogonalEdgeStyle;rounded=0;orthogonalLoop=1;jettySize=auto;html=1;entryX=0.985;entryY=0.284;entryDx=0;entryDy=0;entryPerimeter=0;fillColor=#60a917;strokeColor=#2D7600;strokeWidth=2;" parent="1" edge="1">
          <mxGeometry relative="1" as="geometry">
            <mxPoint x="249.98000000000002" y="585.9712" as="targetPoint" />
            <mxPoint x="453" y="586" as="sourcePoint" />
            <Array as="points">
              <mxPoint x="400" y="586" />
              <mxPoint x="400" y="586" />
            </Array>
          </mxGeometry>
        </mxCell>
        <mxCell id="pmy71wfnWL_n5QM1MCdv-4" value="" style="shape=image;html=1;verticalAlign=top;verticalLabelPosition=bottom;labelBackgroundColor=#ffffff;imageAspect=0;aspect=fixed;image=https://cdn4.iconfinder.com/data/icons/app-custom-ui-1/48/Trends-128.png" parent="1" vertex="1">
          <mxGeometry x="453" y="530.8" width="88" height="88" as="geometry" />
        </mxCell>
        <mxCell id="pmy71wfnWL_n5QM1MCdv-5" value="&lt;b&gt;Define evaluation metrics&lt;/b&gt;" style="text;html=1;strokeColor=none;fillColor=none;align=center;verticalAlign=middle;whiteSpace=wrap;rounded=0;" parent="1" vertex="1">
          <mxGeometry x="432" y="618.8" width="130" height="30" as="geometry" />
        </mxCell>
        <mxCell id="pmy71wfnWL_n5QM1MCdv-6" value="" style="image;aspect=fixed;html=1;points=[];align=center;fontSize=12;image=img/lib/azure2/azure_ecosystem/Collaborative_Service.svg;" parent="1" vertex="1">
          <mxGeometry x="183" y="554" width="68" height="66.8" as="geometry" />
        </mxCell>
        <mxCell id="pmy71wfnWL_n5QM1MCdv-7" value="&lt;b&gt;Execute test cases&lt;/b&gt;" style="text;html=1;strokeColor=none;fillColor=none;align=center;verticalAlign=middle;whiteSpace=wrap;rounded=0;" parent="1" vertex="1">
          <mxGeometry x="163" y="620.8" width="130" height="30" as="geometry" />
        </mxCell>
        <mxCell id="pmy71wfnWL_n5QM1MCdv-15" style="edgeStyle=orthogonalEdgeStyle;rounded=0;orthogonalLoop=1;jettySize=auto;html=1;fillColor=#e3c800;strokeColor=#B09500;strokeWidth=2;" parent="1" source="pmy71wfnWL_n5QM1MCdv-10" target="pmy71wfnWL_n5QM1MCdv-1" edge="1">
          <mxGeometry relative="1" as="geometry">
            <Array as="points">
              <mxPoint x="80" y="220" />
            </Array>
          </mxGeometry>
        </mxCell>
        <mxCell id="pmy71wfnWL_n5QM1MCdv-10" value="" style="shape=image;verticalLabelPosition=bottom;labelBackgroundColor=default;verticalAlign=top;aspect=fixed;imageAspect=0;image=data:image/png,iVBORw0KGgoAAAANSUhEUgAAAMgAAADICAYAAACtWK6eAAAABHNCSVQICAgIfAhkiAAAAAlwSFlzAAALEwAACxMBAJqcGAAAG8xJREFUeJztnXmYHVWVwH/9SELaLAQTBBTTgSCLICCCGFFjAogsExAZZXHDgAgKLiOLKyjugCLI4gKKoogiMoICghIUBBFkkIAMRJJAJjEGgZCQkKXT/nG6pqvvu3WXerfeq07O7/vO9yVddZeqV6fqLmcBRVEURVEURVEURVEURVEURVEURVEURVEURVEUpVW6As6ZABwFvBwYWW13FKUtrAEeBK4AnnSd6FOQA4ArgU3S9EtRasUzwJHAjUUnuBRkB+AvQHfiTilKnVgJ7Ao8ajvYcBQ8BVUOZf2nG/hY0UGXgkxJ3xdFqSV7Fx1wKcjYCjqiKHVkdNEBl4IoygaPKoiiOBjWQtkDkfVkRak7DeCmMgVbUZBbgedbKK8o7aL0c65DLEVxoAqiKA5UQRTFgSqIojhQBVEUB6ogiuJAFURRHKiCKIqDVjYKY9kUmA6MI8yT0UYfsBT4HfBUYJnu/na3aKHd1CwHbgMWBZ4/HJgGbEV9XmrPA7cD8wLPbwBTgW1o7XdYg/gpPdBCHUlYgDyQRRLjfns08lC46ouR5cA7A9p9PfIQpmo3pawGTg24hl2Bx2rQX5v0Al8OuIZJwF8Tt30V4c/gME9d8wLrGUQqBXk1ciOr+HFe42h3C8SlstMPkU/+03ENY4CFNeijT05wXMNGpFeOTC50tJun1gpyuaeeVuQKR7unVthuSrndcQ3H1KB/IfKw4xr2qbDdVcAoR9sZpRWkHePZyR2qu8p2U7I+XMO2jmNVXsMI4KUV1t8WBXmiwrof71C7KdFrKM9aZAjaEVINsaZ66mlF9nG02wOsqLDtVPJexzVsisRt6nQffeJabBgOzKmo3R842s1T6zkIwEnIqk2qG7MG+EhAuzOAZxO2m1LWAecGXMPrgH/WoL9FcikyEXexM/IQpmz3t4THTSitIK716AXASxzHu4lzmOpBvBBf6GnXRR/wNHADMDewzAREUbZsod2U9CHL1Lcg0f1CGItcw0Tqsw+yAtnLuTfw/G7gP5D5SivXsBq4B9kLC2UYbu/X+chSdBQpvyCK0klqvYqlKEMWVRBFcaAKoigOVEEUxYEqiKI4UAVRFAeqIIriQBVEURy04lH4S8RcQlHqTmkLilYUZL8WyirKkECHWIriQBVEURyogiiKA1UQRXGgCqIoDlRBFMVBK8u8eyHeXXXhpcjeTBH3ASe2qS+hTAO+6Dh+FXBem/oSyibAjY7j85BwRXViI8SDM5pWFOSv1CtH4XLP8WeBu9rRkQi28hz/B/Xr8wTP8eeAWW3oRwyao7Bm7IR8zZ5CQp9+B9i8oz1aP3kzEnhvGfLl+jxtdAUfaj7p2+Lu76w29ePV2COpPAaMN849vKCvmdRteAXyBXH1eXab+vEuxNTJbP8Wml/86pNeE3ZGIq6MsRzbGjitvd1Zb3kLcBl2G6t9cMc7jkIVJB2TgZuRsEZFTG9TX9Zn9gWuxB2La1qqxlRB0vAS5NO+hee8tW3oy/rMFOBaYGPPecnusypI60xAvhyTAs79TWTddVol7DS7AL8mLJq7axk6inZmmFof2QS4Cdgx4NxHgHMC6721/9wbAs+fgDxA2yMZnLYEXoTMhbqRsXovEg1xKRLKdCHwd+B/kSX7ZYFtPY9Etdw68PwUvAx5uYwLOPda4PpquyNsKKtYGwFHIslYzgXeENheN/AHT5uZPI6EDTUxV7FuBV4b0PZE4Hjgx0jYzFbj3PYCDwHfBo7APY8CebEei0RuD13FGgN8oL+NLyBL4SG8NOIab8X+XNY+eHU7KKMgY7A/5N/E7YU2Anm7h/xoi4HtCurJFOQR4CDP9W0NfBK4P7DdVmQt8rAdj1tZuoEzgJW5sjYF2Qb56phtvM9zzS9CkvOE9PlP2FcPocYK0gW8EjgMe5KVTZGAxvsgD51Zdvf+siFJWMooyEWO8y8qaGcj4GeetjJ5GtjN0ecZwJk0X3tGA1nSvBn7mn87ZCWSZmBPx3VMRhYpihTkzoK61wHHFdQ5DjEPCunjbNyKXEsFGYmMB/NlvsbAm/kQZNybHfs7MoYGeTNdZ5Q9G/dbPVZBuvCnRjjfUuYyT5lMlhM2XLIxDJgJPBrYVrvkd8AbC/rcBXwQ+LPx95d56lxHc46UFwB3BPZpDjLnclFLBflMQbm3AZshNjvmsezmfq6g7GGO9mIVpNtzfl6pM74eWGYV5X32D6e6hDOp5EaK5xDmw7p3QH29wLv7zx+BLHyE9GMBYauHtVSQPxeU+xHwdke9W1L8ab3c0V6ZIVboG/qryFAo5Ny1uBW5iO2RN3SnH/5QWYMsaviWXV/Yf26oklwd2P4SwlYPoaYK8seCct9DHqCieicAdxcc+46jvTIK8g5PmVhZx8CbMJQG8HFk+bTTD30ZmYNkwXJxXuI2lyLz01BqqSAnFpTbB1ltWGw5lq37n1xQdqqjvbLLvJ/2lIuRkz33xGQrJEtTpx/yVmVt/30s2ngeBvw8UVsrgNcH3d3B7ddOQRrAVxj4vC5jcML5PRk8xLkFWdbLyp6TK/ssxasdGa1Y837WUzZEPu3pn8lU6p17sIxcT/FS63DgFy3WvxoxcY+llgqSMQ6xcu22HGsgewRFua5dZU1aNXf/vKe8S0J3yDNmEjYuj5EFyFv6TGRVaF9kd30HZBl2W8QU/wDE4+9s5Iu9KHE/ZlPsCDYc8ZMpU+9aylvp1lpB2kUKf5Ave+qwiWteZKNodS9WViIP2zG4k62GsDOSNfi3pNlvmU/x5ugI4FeR9dmWgmNQBSGdw9TZnnrychVxBp9nRdRdJPcjZh6jI9qNoQfZHbeZkcTIQmQPxMbGhFsi9AEfbvGaVEFI61H4NU9dfYhl6fCIOov2dkJlFu5FitSMQOaMj7fQ5ycoHj6PRAwQfXWcmeBaVEFI73L7DUddvydsXpTxUU/fXPIQcHBk31MyAjidwfZWMTKbYivcbgZMVGzy9UTXoApCNT7pn6J5f+JnFK/U2JiBbILFPlhrkSFZzFeqSvL2VrFyA8VD0W7ghwye+6xCVhZLpy0wUAWhuqANExCDwSMpHlMXsStikxX7QD2CrDjVjS5kkaGMwp/lqXsbxMLiMAaW+1OhCkJ9oppkjEKckWIfpFDHoE5yAGKpHHNdvbR3DpVHFYT6Kch3Pf2xycUMHS/PVyL2UDHXN5+44WkqSitIKz/G7tQr9KgvSuEoZL0/NSuQmFd5DkU2A2M4Gzg1SY/aw31I9JBbCA+KNxEJtXqS8ffNEPflqnBFQCmN7wuiIvIR476NIn4PIdVqTSfYGXiG8GvtRb4+eWZElK9C5pW5cFUQv8yn2RvwK5F1fN/9MwwJ9kVW3UKveZaljnsiyquCDBExfaonI8PO0PJ344/xNFQ4hbh7ZxodvjWyvCpIzWUhzV+PyyPKL8Y/bxpKdCG+86HX/yejfAOZy6mCrCfyCeN+bUfcMKOM12HdmcjgOAM+MUMsnRZRVhWkxrKa5s2sSyPKX+2//UOWjxF+H64xym5OejcAVZAOiPmAb4os94aUXYo/hu9QZgThQ6U1NN+LWFP4ShWklX2QWxH7mbrQjTvMzjPAvYnautj4/7sJN148D8kctb6yGjEruSzg3GHAO5E9oIxvU82eyN6pK9Sd9HAe8LSdyb+odkOsLgwjfC/o7jb1p+1fEEXYnvAd+vORIVYKDkZ27EcheQy/i8Qai+GQ/jq6kSg0l5aow8Za5Cv7hYBz90RW8xaUaGcEstixG5Lu7mqarRoqQ78gYXzC025+vP3iRG1+y1L/w4S73jaQ8Eu2OlLNj15M+KperFkOSPy02UY9q7Bn2FVjRTqnIH/ytJvJLxK159pQewS/EnZhV45MfpqonxAeCO/KyHrH06wc+ReRGVBOFYTOKMhowt+ShyZq0xc4+2GKY9V24bcyXkVxMO1YTvK0lcn8iDrHUBxYMBNzaKdJPDvEFMIsRVchu8wpGOs5noUwNYdKXcAl+IczI4hzJ3ZxU+B5Ewkb2o1EIrm4Is2DP5h1MKogrRG6dHgbaSa/ELZUvQOiJPnNzG/iz8cBEswv1ULCI0hwvBB28Rwfhnw93xhQ14OBbbaEDrH8XONpM5NTEra5BeGOSrMRJTk/8Pw+xO01JdcHtusK7dNAsmmF1LOY5lwhOgehXH6Q1yFv1YMpZ1X7N0+bmexTom4XuyPLmiFth56XWpEzvhTY9nmOOi4JrGMZsJelvCoIcQoyHgndkz8+H9gjor3hhNsNmW+0o5Chxycj2jPZg3i/cJec3kJfXMwMbP/nBeVD/WtWUpwfvbYKMg74EBKI7WiaNyb3RXJvfBqJapFnU+Szey7yQPk2NWMUpChg2TOEK8lWnvYysZmVZMr5aGBbRbyaOG++ImlFUX28KbAPt1nKfjyw7BoklV8RtVSQiTRH5fsdA0uI5pthJQNDkUk0myrcjDtGVKiC7OA57ymaXUIbSIysPLt76snkPktfF/Yf+63jekJ5DTKpLqscZyTog4tXBfbjr0a5XQPL9SIvUBe1VJAfFpR7P2KaYTs2B5kbXFlw/FhHe6EKcpDnvD7gSQZWVbK9A/MNt39APX005zpvMBBXypUxK4Yp+PMt2uRzidp3sX1gXx4xyoUq1vEBfajlPkiRZe3eyA9qYzKy6uIq2yrzAs4Zj0Tr2AkZ4s2keZk2NHj0k8b/xzBw358OrMPHnUisqpgoM+ciQeCqZk3geeboIMRS/DTE7KYyqlSQIpPuhY5jzyNjalfZVnmQsCXfzZAd2yxqiflDh967PuP/+dWylYF1hGBLpe1ib9oToyrUIHat8X/fBuyXkPlrpVSpILakMs8hGn8T9s2cC5BdZ1vZZcTn4ijiCCTqoY8X5P5txokte+96E9Rh8ikklm0Mr0Gy1VaVRiEjtP5Vxv9dQ/gLaXZ5bjspVrHejmxWLUfe2vkVoi2BnyBfjMeRz33+bXMUokTLEecsX9LG2H2QFyPj3tDxumk24UpEmpcfGeVG5I5d6LmmEEJXeork9/gz1bbCfoH9+INRrmiu+APig1rXcpLebsrspL+E8Jzk5g84LbCczQYrW+YtY+ad59TAPvhkFoO/lil5b2AfTGvndxecU8aHqZaT9KHA/yEPeoiTjbnZ91RgGzYjvGnIF+zSwDps/BeyVJ6CqcB1pDNSzLNt4HlPGP83zfZvQYbG5lylUjZ0BQH5Yabh/8ya8WeXBNZvc2LqRZJnluVDhCcOvY7m8b2N6YilbOqRwU6B55km7/nMVHch7gIh19E2NoQhVp5JyI/kqiP/hu1CFh1Chg9FacjKMIXwRJuX9PfzQOThCilzbsK+wsCmqE8ONMplQejuR6wqWkHnIKSx5t0Gd7AB8214v6fNTA4paK/MePqywDa/zeDJ7MGEKclS0o0sJgf2tQ+xvMizAFlECY0c70LnIIl4DPE3+Jvl2C9pnquELBWD3cHnPci+jxlCyIf5INm4FNlh7sv97Xokz7hv424s6SKv7Bd43mJkJTNjArJHtG//sVqyIX5BMoYjS9TnIPksphecFxqw2ebklMXxXUPcW/JiT1uX4V4GPRR3gO0lnvIxhKZ6vtYoN460+zM6xKIzDlN7e9rMizlZPzR37OMRbe5E8VDpe4SNCg6j2FQ/1QbceMIj3Z+cqM0iVEHojIJsTHMW3CI50Sg7jIF7vJA4h60ZSBC6rO5eJAlPzJDZrGMdkvo61bD7ZMLuSx9i0FglqiB0LuxP6DDCZvaeD/RsZqryMRqZeB8B9JTpuFHH1iXrsNFFuLelbb6Xmo5EVjydNm/aeDA38kx6aPbpKMMs4Pbc/6+lORmMjd0Q+6e7cn+7GFGSzRGnsSsI319Zjky8WyFFHTYOQvxuQjA9CXcm7H7GUMlilEZ3t4v5QG1J+L6ELUDa+zzHhxpdwJ8Jv5/bGeVjkhClknllLlQVxC7P0xybKjSz0jrkS5KngfhzZOe8o/mnGFK8nfB7ebtRtpvWvCNVQWoiRxv36vCIsqaHIchwJNuVf45ml9+hwmia3axdcoRR/qiIsqogNZXraLZ8HY5EKQmtwxZg4Jjc8YWknTS3i/MIvwfzafYinBVRXhWkhnIxdk+3jxI+D8kUwLao8M3cOfMQU42hwjTi7sEJRvnQIA2qIDUVW2icLsS4r0x9P7bUtxGDg1P/A38c2jqwBWKdHHrtc2ne97kiorwqSI1kFfaJ88YUR18JFdsO8jAGh9lciTuaS6fZmMGLDCFypFHHtsRlCG6bgrhsbhbgTshyEvXaB9kMdxibR5EAdrHcR3NO73HI/sfUEvXl6UU26m40/t6FBCU4Lfe3/wY+gDh51YUGcBWySBHKH5D71pf7214UR7pJQQO3Gf98xN0hCt1JtzOR4uQtZWQpEgPKxtsYvOy5DNlQrIMVdoNw0/v81zjUgSolampCexRkd8IdgGLkXxQrSQ/N+yxvSnAtrTCc4sCALqkqxOko3C8NVRCqV5CDkDd4auXI5FnE/6GII5DJ7eOE5yKsgnEUxzZ2yR8JSzYUw0wGcrIvpziFtCoI1SrIibRnErkGmdvVlV2QuVzsdS1Bgn2n5JMFbd1Fs42hKgjVKMhGiBl51Yphys/wG1+2kwYSaT/UtN9U+iKHs7J80NOmuUOvCkJ6BRlNeHakKmQR6bM9lWFX4A7KX0dI2rcY3oV/Q/J8o4wqCGkVZCLhARmqllnYsyZVzUTEtz2LRF9Gzkjcp7cQNtT9slFOFYR0CrIXsoPdacUw5SYkCEIqf/EiXgl8n/AwQUWSOnzQfhF9MvdUVEFIoyBHIzvXnVYGl8wBziTtfkIP4tEY48fhEvMN3iqvRVapQtr+hqW8KgitKUgXkny+0w9/rMxFhkEzkT2akPi6I4FXIGP5i4CHEvZnHWK4aaMHSVfwq/4+vy6gryD+M6G5GK/A/oWtpYJ0AW9FsjNdgOTTy9ODhNS5HDGhGGmUPRy5kRcQljfQpyBFrqWjkaDInX7YUz2gi4H/QTJi3YCYsdyGmMwsIs7iNkaWIZFabEzB7gjli+ayXf/1hLR/LcUu5LVUEDM39zoGlt9eQXPyyTsYsPC8yDjWiwQ9c+FSkJuwh69sIElyOv1gD3V5iOIhXwP33klRdl1bjssiuQV3VJjaKUhRDsJ/9ne2aPn0WOSTaju2CPdObJGCfKmgXLbP8FY6a0k61OVbuPOLhPh5fMwosznhuVvuxB9krnYK8i5HuUkU2zNdgjufhGs31lSQ5RRbmX4CMe3IVjtCc1ioDH6oQqKPhAbX+3D/+eMIX2IPDWxdOwWZWlBmJTKRLPIfOB3JtWc79hzuz2heQeYgXzGTbgb7cDyFDPdA8m10+qEbCrISOIviBYGDjP+PJXxl8FTEZivk3JjA1rVTkAZ2/+Kz+o8fbDm2EAla3EB8BszjZ3j6mynIDRS/VbZDss7m613EgGvrFz3XXLU8g6ymxfi3t0tWIzkii77imyH++vdYjn02cV8eJyyId0btFAQkg+o5yATuXsR+Jm+SfCCSe/BRZHluUu7YWMS56W/IDT8R/wbZZGS+YTN7noKslIG4sJpWuY8xkNHIFxy6KlnCQB7GUUiSnHkd6ktenkX2FnpsN72fwxhYbbIpSJZrPkV/FhMfqrSWClIXTmAgiPJx/X+bTrPh3Wxk4t6gdVfaWFmEfRWogXxtryE8EHQKWYesKh6HO1V0D81L5DYFya7ley3262ma44qFoApiYSTNHm+9iJce2O167kLe3sOBXxP/A5aRBTRHF7QxDln8+Ckyd0rdjxWIn8fJ+GP9boIMBVdY6ilSEBAl+UHJ/j2H7KiXQRXEYCLyQ9n6vQrYv/+8Y2jeOLsZSdXcjX0ulFLmI1mtYmkgy6fHI05CtxM3b1naf38uR0xMXkt4dPnxDI4KH6MgWd9/FNHX7DdrxYtSFSTHdPwPS/5t9BHL8auRvZNNkB3oKpRjLvZAAe9Bhi3TiTdM7EYCzu2BxKnav1+mIZYML8M9ZAphK9zX5VMQkHv7E089maxF5jitoArSzymEb/o9jXjIAXzecjxL0fwiwjetQuXv2FdhTmDwF+2LrdyMikihICAPbT4GmE3WIfnSW2WDV5DR+G+2TfJLvBdajmeplntIFyesSDlsCWfOK39LKiOVgoA8uD931JUq89QGrSDbAQ9S/oHNlni7sI+Ns5RkO9K8hxIrc7ErR9Em5fquICAP71cZvJn4T9J8OfJtbJAKcgjNRo9lJFviLbITe39/e3si+wJl2piHfc7hSgS6IShIxljEBH5PmoNat8oGpyANZHye0nT7LmSo1g383jjWy4B/+DTigxc8gT1a+3RPuQ1JQapkg1KQ8ZSLyxQimdn0JsBfjGOrgQP6+3AI4YsBC5HVIxu+vCKqIGnoSI7Cd+JPSl+GPmSY8y/Lsd2RXeWeCtoFMZS8EvE9eTOyv5A93MOR5d83IXFyZyI7w66l2CX9dT5q/P0wZC6yq6c/r2BgeFcXxnmOb0pz2J1Os97kKHwe2byz8R7a5y9+GfLg9yDDo/yxpxl4sD/kqOMp7Apg23dR6azMs/xOXtqtIAuw58IYgfiJtPumZVE5dkS+BPlj/0Csh0Eiyptlny24lg904DpU/DLP8lt5Md+cVcpc7MufWyGT507duCzY8h40r17NZSBG7gW5v6/AnhbhOKrzB1dpTeZafi8voYngW5Vl2HNqTyXcYb9KyVKFvZHmId6DyKJBF2Kyvxox4zd5B60FYFOpVv5i+c28mIETqpL3Wto+CVkA6PSN60Me7Cwj0gxLv+5GloeHAW+wXMvbUJ/3ustXLL+blx7SbMK5xMzcBOJ22ekbZkr+y2CLDXsz9tUsm0Kp1EsWId6QpdgLMcmuqnMzjPZiM6W2U1YAr+/vp2k3dbzl3u1PuWjoKu2TB4CXW367/yfEnHok4oi/E7KilIq1iI96b///G4jJx44J20jNUkSJ70P8rD+DBD8zQ202kP2LkEiHSvtZjTxrs5AX8pDgADr/RgmRxQx4ANom5IpSCamc+tsh8xE/EWU9pw7ZUjOqTAOcmnuwm8IoSmXYAgDUUX5D2rmYonjxWVvWRe7EHYdWUSqhi/rvND9AWBxYRamEOpiVFMljwJbVXbpSV+o0STd9JurCYsQHZFGnO6K0nzopyL2d7oCFpYjj1JxOd0RRDqHzQ6m85E1LFKXjvIDwTKZVy1qa7cQUpeN8n84rRx92E3xF6TivovPKcWrlV6koLXADnVOOzA9dUWrLLnTGA+9y4qOpK0pHOIf2KsevaC1GmKK0lZFUl5fDlDtQxyZlCDIJ2b2uUjlmo/ZVyhBmN6rJx9eHOD0VpTRWlCHDLqQPYvck8amEFaW2bE66iO7LkWgtirJe0QUcS1w2V1OWUD6VsKIMCUYju92x8bquQVKtKcoGQQOJUfV1JLbqKgYrxDrgYeAbyGRfUaJZn3aOG8hcZQyiLIuRyIaKoiiKoiiKoiiKoiiKoiiKoiiKoiiKoiiKoihV828cRKLIdJqfxAAAAABJRU5ErkJggg==;" parent="1" vertex="1">
          <mxGeometry x="60" y="316.8" width="111.2" height="111.2" as="geometry" />
        </mxCell>
        <mxCell id="pmy71wfnWL_n5QM1MCdv-16" style="edgeStyle=orthogonalEdgeStyle;rounded=0;orthogonalLoop=1;jettySize=auto;html=1;entryX=0.18;entryY=0.928;entryDx=0;entryDy=0;entryPerimeter=0;fillColor=#1ba1e2;strokeColor=#006EAF;strokeWidth=2;" parent="1" source="pmy71wfnWL_n5QM1MCdv-6" target="pmy71wfnWL_n5QM1MCdv-10" edge="1">
          <mxGeometry relative="1" as="geometry" />
        </mxCell>
        <mxCell id="pmy71wfnWL_n5QM1MCdv-17" style="edgeStyle=orthogonalEdgeStyle;rounded=0;orthogonalLoop=1;jettySize=auto;html=1;exitX=0.5;exitY=1;exitDx=0;exitDy=0;entryX=0.989;entryY=0.673;entryDx=0;entryDy=0;entryPerimeter=0;fillColor=#d80073;strokeColor=#A50040;strokeWidth=2;" parent="1" source="pmy71wfnWL_n5QM1MCdv-3" target="pmy71wfnWL_n5QM1MCdv-4" edge="1">
          <mxGeometry relative="1" as="geometry" />
        </mxCell>
        <mxCell id="pmy71wfnWL_n5QM1MCdv-18" value="&lt;b&gt;Find edge cases to improve dataset&lt;/b&gt;" style="text;html=1;strokeColor=none;fillColor=none;align=center;verticalAlign=middle;whiteSpace=wrap;rounded=0;" parent="1" vertex="1">
          <mxGeometry x="90" y="427.99999999999994" width="130" height="30" as="geometry" />
        </mxCell>
        <mxCell id="pmy71wfnWL_n5QM1MCdv-21" value="&lt;b&gt;&lt;font style=&quot;font-size: 16px;&quot;&gt;1&lt;/font&gt;&lt;/b&gt;" style="ellipse;whiteSpace=wrap;html=1;fillColor=#a20025;strokeColor=#6F0000;fontColor=#ffffff;" parent="1" vertex="1">
          <mxGeometry x="390" y="160" width="30" height="30" as="geometry" />
        </mxCell>
        <mxCell id="pmy71wfnWL_n5QM1MCdv-22" value="&lt;b&gt;&lt;font style=&quot;font-size: 16px;&quot;&gt;2&lt;/font&gt;&lt;/b&gt;" style="ellipse;whiteSpace=wrap;html=1;fillColor=#a20025;strokeColor=#6F0000;fontColor=#ffffff;" parent="1" vertex="1">
          <mxGeometry x="662" y="308" width="30" height="30" as="geometry" />
        </mxCell>
        <mxCell id="pmy71wfnWL_n5QM1MCdv-23" value="&lt;b&gt;&lt;font style=&quot;font-size: 16px;&quot;&gt;3&lt;/font&gt;&lt;/b&gt;" style="ellipse;whiteSpace=wrap;html=1;fillColor=#a20025;strokeColor=#6F0000;fontColor=#ffffff;" parent="1" vertex="1">
          <mxGeometry x="465" y="512.8" width="30" height="30" as="geometry" />
        </mxCell>
        <mxCell id="pmy71wfnWL_n5QM1MCdv-24" value="&lt;b&gt;&lt;font style=&quot;font-size: 16px;&quot;&gt;4&lt;/font&gt;&lt;/b&gt;" style="ellipse;whiteSpace=wrap;html=1;fillColor=#a20025;strokeColor=#6F0000;fontColor=#ffffff;" parent="1" vertex="1">
          <mxGeometry x="201" y="516" width="30" height="30" as="geometry" />
        </mxCell>
        <mxCell id="pmy71wfnWL_n5QM1MCdv-25" value="&lt;b&gt;&lt;font style=&quot;font-size: 16px;&quot;&gt;5&lt;/font&gt;&lt;/b&gt;" style="ellipse;whiteSpace=wrap;html=1;fillColor=#a20025;strokeColor=#6F0000;fontColor=#ffffff;" parent="1" vertex="1">
          <mxGeometry x="100.6" y="286.8" width="30" height="30" as="geometry" />
        </mxCell>
      </root>
    </mxGraphModel>
  </diagram>
</mxfile>
